<svg xmlns="http://www.w3.org/2000/svg" xmlns:xlink="http://www.w3.org/1999/xlink" version="1.1" id="Your_Icon" x="0px" y="0px" width="48px" height="48px" viewBox="17 176.375 48 48" enable-background="new 17 176.375 48 48" xml:space="preserve">
<path fill="#000000" d="M41,176.375c-13.255,0-24,10.745-24,24s10.745,24,24,24s24-10.745,24-24S54.255,176.375,41,176.375z   M54.004,203.203l-9.34,9.344c-1.557,1.555-2.828,1.028-2.828-1.172v-7.25H30.83c-2.199,0-3.999-1.688-3.999-3.75  c0-2.062,1.8-3.75,3.999-3.75h11.006v-7.25c0-2.2,1.271-2.727,2.828-1.172l9.34,9.344C55.559,199.102,55.559,201.648,54.004,203.203  z"/>
</svg>