<?xml version="1.0" encoding="UTF-8" standalone="no"?>
<svg
   xmlns:dc="http://purl.org/dc/elements/1.1/"
   xmlns:cc="http://creativecommons.org/ns#"
   xmlns:rdf="http://www.w3.org/1999/02/22-rdf-syntax-ns#"
   xmlns:svg="http://www.w3.org/2000/svg"
   xmlns="http://www.w3.org/2000/svg"
   xmlns:sodipodi="http://sodipodi.sourceforge.net/DTD/sodipodi-0.dtd"
   xmlns:inkscape="http://www.inkscape.org/namespaces/inkscape"
   version="1.1"
   id="Your_Icon"
   x="0px"
   y="0px"
   width="100px"
   height="100px"
   viewBox="0 0 100 100"
   enable-background="new 0 0 100 100"
   xml:space="preserve"
   inkscape:version="0.48.4 r9939"
   sodipodi:docname="deja_vu.svg"><metadata
   id="metadata27"><rdf:RDF><cc:Work
       rdf:about=""><dc:format>image/svg+xml</dc:format><dc:type
         rdf:resource="http://purl.org/dc/dcmitype/StillImage" /></cc:Work></rdf:RDF></metadata><defs
   id="defs25" /><sodipodi:namedview
   pagecolor="#ffffff"
   bordercolor="#666666"
   borderopacity="1"
   objecttolerance="10"
   gridtolerance="10"
   guidetolerance="10"
   inkscape:pageopacity="0"
   inkscape:pageshadow="2"
   inkscape:window-width="1763"
   inkscape:window-height="955"
   id="namedview23"
   showgrid="false"
   inkscape:zoom="6.675088"
   inkscape:cx="47.593742"
   inkscape:cy="51.488239"
   inkscape:window-x="0"
   inkscape:window-y="0"
   inkscape:window-maximized="0"
   inkscape:current-layer="Your_Icon" />
<path
   d="m 53.354165,20.471456 v 24.785 h -24 v -24.785 c 0,-0.368 -0.112,-0.701 -0.293,-0.943 -0.181,-0.241 -0.431,-0.39 -0.707,-0.39 -0.552,0 -1,0.597 -1,1.333 v 24.785 H 2.5971652 c -0.367,0 -0.699,0.112 -0.94,0.293 -0.241,0.181 -0.39,0.431 -0.39,0.707 0,0.552 0.596,1 1.33,1 H 27.354165 v 24 H 2.5971652 c -0.367,0 -0.699,0.112 -0.94,0.293 -0.241,0.181 -0.39,0.431 -0.39,0.707 0,0.552 0.596,1 1.33,1 H 27.354165 v 24.549 c 0,0.368 0.112,0.701 0.293,0.943 0.181,0.241 0.431,0.39 0.707,0.39 0.552,0 1,-0.597 1,-1.333 v -24.549 h 24 v 24.549 c 0,0.368 0.112,0.701 0.293,0.943 0.181,0.241 0.431,0.39 0.707,0.39 0.552,0 1,-0.597 1,-1.333 v -24.549 h 24.372 c 0.367,0 0.699,-0.112 0.94,-0.293 0.24,-0.181 0.389,-0.431 0.389,-0.707 0,-0.552 -0.595,-1 -1.329,-1 h -24.372 v -24 h 24.372 c 0.367,0 0.699,-0.112 0.94,-0.293 0.24,-0.181 0.389,-0.431 0.389,-0.707 0,-0.552 -0.595,-1 -1.329,-1 h -24.372 v -24.785 c 0,-0.368 -0.112,-0.701 -0.293,-0.943 -0.181,-0.241 -0.431,-0.39 -0.707,-0.39 -0.552,0 -1,0.597 -1,1.333 z m 0,50.785 h -24 v -24 h 24 v 24 z"
   id="path3"
   inkscape:connector-curvature="0" />


<path
   d="m 5.4873542,23.519383 c 0.823,-0.824 2.159,-0.825 2.983,0 l 6.6869998,6.687 6.687,-6.687 c 0.824,-0.825 2.16,-0.823 2.983,0 0.412,0.412 0.618,0.952 0.618,1.492 -10e-4,0.539 -0.206,1.079 -0.618,1.492 l -6.687,6.687 6.687,6.687 c 0.824,0.824 0.823,2.16 0,2.983 -0.412,0.412 -0.952,0.618 -1.492,0.619 -0.539,-10e-4 -1.079,-0.206 -1.492,-0.619 l -6.687,-6.687 -6.6869998,6.687 c -0.824,0.824 -2.16,0.823 -2.983,0 -0.823,-0.823 -0.824,-2.159 0,-2.983 l 6.6869998,-6.687 -6.6869998,-6.687 c -0.823,-0.826 -0.823,-2.161 0.001,-2.984 z"
   id="path9"
   inkscape:connector-curvature="0" />


<path
   d="m 57.635165,75.736456 c 0.823,-0.823 2.159,-0.824 2.983,0 l 6.687,6.687 6.687,-6.687 c 0.824,-0.824 2.16,-0.823 2.983,0 0.412,0.412 0.618,0.952 0.618,1.492 -0.001,0.539 -0.206,1.079 -0.618,1.492 l -6.687,6.687 6.687,6.687 c 0.824,0.824 0.823,2.16 0,2.983 -0.412,0.412 -0.952,0.618 -1.492,0.619 -0.539,-0.001 -1.079,-0.206 -1.492,-0.619 l -6.687,-6.687 -6.687,6.687 c -0.824,0.824 -2.16,0.823 -2.983,0 -0.823,-0.823 -0.824,-2.159 0,-2.983 l 6.687,-6.687 -6.687,-6.687 c -0.823,-0.825 -0.822,-2.16 10e-4,-2.984 z"
   id="path15"
   inkscape:connector-curvature="0" />

<path
   d="m 3.2899222,85.637222 c 0,6.306 5.112,11.418 11.4179998,11.418 6.306,0 11.418,-5.112 11.418,-11.418 0,-6.306 -5.112,-11.418 -11.418,-11.418 -6.3059998,0 -11.4179998,5.112 -11.4179998,11.418 z m 20.1489998,0.075 c 0,4.863 -3.942,8.806 -8.806,8.806 -4.8629998,0 -8.8059998,-3.943 -8.8059998,-8.806 0,-4.864 3.943,-8.806 8.8059998,-8.806 4.864,0 8.806,3.942 8.806,8.806 z"
   id="path19"
   inkscape:connector-curvature="0" />
<path
   d="m 55.887165,33.203456 c 0,6.306 5.112,11.418 11.418,11.418 6.306,0 11.418,-5.112 11.418,-11.418 0,-6.306 -5.112,-11.418 -11.418,-11.418 -6.306,0 -11.418,5.112 -11.418,11.418 z m 20.149,0.075 c 0,4.863 -3.942,8.806 -8.806,8.806 -4.863,0 -8.806,-3.943 -8.806,-8.806 0,-4.864 3.943,-8.806 8.806,-8.806 4.864,0 8.806,3.942 8.806,8.806 z"
   id="path21"
   inkscape:connector-curvature="0" />
<path
   inkscape:connector-curvature="0"
   d="M 72.117304,1.8581286 V 26.643129 h -24 V 1.8581286 c 0,-0.368 -0.112,-0.701 -0.293,-0.94299998 -0.181,-0.241 -0.431,-0.39 -0.707,-0.39 -0.552,0 -1,0.59699998 -1,1.33299998 V 26.643129 h -24.757 c -0.367,0 -0.699,0.112 -0.94,0.293 -0.241,0.181 -0.39,0.431 -0.39,0.707 0,0.552 0.596,1 1.33,1 h 24.757 v 24 h -24.757 c -0.367,0 -0.699,0.112 -0.94,0.293 -0.241,0.181 -0.39,0.431 -0.39,0.707 0,0.552 0.596,1 1.33,1 h 24.757 v 24.549 c 0,0.368 0.112,0.701 0.293,0.943 0.181,0.241 0.431,0.39 0.707,0.39 0.552,0 1,-0.597 1,-1.333 v -24.549 h 24 v 24.549 c 0,0.368 0.112,0.701 0.293,0.943 0.181,0.241 0.431,0.39 0.707,0.39 0.552,0 1,-0.597 1,-1.333 v -24.549 h 24.372 c 0.367,0 0.699,-0.112 0.94,-0.293 0.24,-0.181 0.389,-0.431 0.389,-0.707 0,-0.552 -0.595,-1 -1.329,-1 h -24.372 v -24 h 24.372 c 0.367,0 0.699,-0.112 0.94,-0.293 0.24,-0.181 0.389,-0.431 0.389,-0.707 0,-0.552 -0.595,-1 -1.329,-1 h -24.372 V 1.8581286 c 0,-0.368 -0.112,-0.701 -0.293,-0.94299998 -0.181,-0.241 -0.431,-0.39 -0.707,-0.39 -0.552,0 -1,0.59699998 -1,1.33299998 z m 0,50.7850004 h -24 v -24 h 24 v 24 z"
   id="path3-4"
   style="opacity:0.34070794" /><path
   d="m 24.250493,4.9060556 c 0.823,-0.824 2.159,-0.825 2.983,0 l 6.687,6.6870004 6.687,-6.6870004 c 0.824,-0.825 2.16,-0.823 2.983,0 0.412,0.412 0.618,0.952 0.618,1.492 -10e-4,0.539 -0.206,1.079 -0.618,1.492 l -6.687,6.6870004 6.687,6.687 c 0.824,0.824 0.823,2.16 0,2.983 -0.412,0.412 -0.952,0.618 -1.492,0.619 -0.539,-0.001 -1.079,-0.206 -1.492,-0.619 l -6.687,-6.687 -6.687,6.687 c -0.824,0.824 -2.16,0.823 -2.983,0 -0.823,-0.823 -0.824,-2.159 0,-2.983 l 6.687,-6.687 -6.687,-6.6870004 c -0.823,-0.826 -0.823,-2.161 10e-4,-2.984 z"
   id="path9-2"
   inkscape:connector-curvature="0"
   style="opacity:0.34070794" /><path
   inkscape:connector-curvature="0"
   d="m 76.398304,57.123129 c 0.823,-0.823 2.159,-0.824 2.983,0 l 6.687,6.687 6.687,-6.687 c 0.824,-0.824 2.16,-0.823 2.983,0 0.412,0.412 0.618,0.952 0.618,1.492 -10e-4,0.539 -0.206,1.079 -0.618,1.492 l -6.687,6.687 6.687,6.687 c 0.824,0.824 0.823,2.16 0,2.983 -0.412,0.412 -0.952,0.618 -1.492,0.619 -0.539,-0.001 -1.079,-0.206 -1.492,-0.619 l -6.687,-6.687 -6.687,6.687 c -0.824,0.824 -2.16,0.823 -2.983,0 -0.823,-0.823 -0.824,-2.159 0,-2.983 l 6.687,-6.687 -6.687,-6.687 c -0.823,-0.825 -0.822,-2.16 10e-4,-2.984 z"
   id="path15-3"
   style="opacity:0.34070794" /><path
   d="m 22.053061,67.023895 c 0,6.306 5.112,11.418 11.418,11.418 6.306,0 11.418,-5.112 11.418,-11.418 0,-6.306 -5.112,-11.418 -11.418,-11.418 -6.306,0 -11.418,5.112 -11.418,11.418 z m 20.149,0.075 c 0,4.863 -3.942,8.806 -8.806,8.806 -4.863,0 -8.806,-3.943 -8.806,-8.806 0,-4.864 3.943,-8.806 8.806,-8.806 4.864,0 8.806,3.942 8.806,8.806 z"
   id="path19-2"
   inkscape:connector-curvature="0"
   style="opacity:0.34070794" /><path
   inkscape:connector-curvature="0"
   d="m 74.650304,14.590129 c 0,6.306 5.112,11.418 11.418,11.418 6.306,0 11.418,-5.112 11.418,-11.418 0,-6.3060004 -5.112,-11.4180004 -11.418,-11.4180004 -6.306,0 -11.418,5.112 -11.418,11.4180004 z m 20.149,0.075 c 0,4.863 -3.942,8.806 -8.806,8.806 -4.863,0 -8.806,-3.943 -8.806,-8.806 0,-4.8640004 3.943,-8.8060004 8.806,-8.8060004 4.864,0 8.806,3.942 8.806,8.8060004 z"
   id="path21-2"
   style="opacity:0.34070794" /></svg>