<?xml version="1.0" encoding="UTF-8" standalone="no"?>
<svg
   xmlns:dc="http://purl.org/dc/elements/1.1/"
   xmlns:cc="http://creativecommons.org/ns#"
   xmlns:rdf="http://www.w3.org/1999/02/22-rdf-syntax-ns#"
   xmlns:svg="http://www.w3.org/2000/svg"
   xmlns="http://www.w3.org/2000/svg"
   xmlns:sodipodi="http://sodipodi.sourceforge.net/DTD/sodipodi-0.dtd"
   xmlns:inkscape="http://www.inkscape.org/namespaces/inkscape"
   version="1.1"
   id="Your_Icon"
   x="0px"
   y="0px"
   width="100px"
   height="100px"
   viewBox="0 0 100 100"
   enable-background="new 0 0 100 100"
   xml:space="preserve"
   inkscape:version="0.48.4 r9939"
   sodipodi:docname="plain_jane.svg"><metadata
   id="metadata27"><rdf:RDF><cc:Work
       rdf:about=""><dc:format>image/svg+xml</dc:format><dc:type
         rdf:resource="http://purl.org/dc/dcmitype/StillImage" /></cc:Work></rdf:RDF></metadata><defs
   id="defs25" /><sodipodi:namedview
   pagecolor="#ffffff"
   bordercolor="#666666"
   borderopacity="1"
   objecttolerance="10"
   gridtolerance="10"
   guidetolerance="10"
   inkscape:pageopacity="0"
   inkscape:pageshadow="2"
   inkscape:window-width="1430"
   inkscape:window-height="955"
   id="namedview23"
   showgrid="false"
   inkscape:zoom="6.675088"
   inkscape:cx="50"
   inkscape:cy="50"
   inkscape:window-x="0"
   inkscape:window-y="0"
   inkscape:window-maximized="0"
   inkscape:current-layer="Your_Icon" />



<path
   d="m 8.0588011,27.133594 c 1.254421,-1.447868 3.2907599,-1.449625 4.5467049,0 l 10.19236,11.749868 10.192361,-11.749868 c 1.255945,-1.449625 3.292283,-1.446111 4.546704,0 0.627972,0.723934 0.941959,1.672779 0.941959,2.621624 -0.0015,0.947088 -0.313987,1.895934 -0.941959,2.621625 L 27.34457,44.126711 37.536931,55.876578 c 1.255945,1.447868 1.254421,3.795382 0,5.241492 -0.627973,0.723934 -1.451044,1.085901 -2.274114,1.087658 -0.821547,-0.0018 -1.644618,-0.361967 -2.274115,-1.087658 L 22.796342,49.368202 12.603982,61.11807 c -1.255946,1.447868 -3.2922839,1.446111 -4.5467049,0 -1.254421,-1.44611 -1.255945,-3.793624 0,-5.241492 L 18.249638,44.126711 8.0572771,32.376843 c -1.254421,-1.451382 -1.254421,-3.797139 0.0015,-5.243249 z"
   id="path9"
   inkscape:connector-curvature="0" />






<path
   d="m 64.361492,26.828179 c 1.254421,-1.447869 3.29076,-1.449626 4.546705,0 l 10.19236,11.749868 10.192361,-11.749868 c 1.255945,-1.449626 3.292283,-1.446112 4.546704,0 0.627972,0.723934 0.941959,1.672779 0.941959,2.621624 -0.0015,0.947088 -0.313987,1.895934 -0.941959,2.621625 L 83.647261,43.821296 93.839622,55.571163 c 1.255945,1.447868 1.254421,3.795382 0,5.241492 -0.627973,0.723934 -1.451044,1.085901 -2.274114,1.087658 -0.821547,-0.0018 -1.644618,-0.361967 -2.274115,-1.087658 L 79.099033,49.062787 68.906673,60.812655 c -1.255946,1.447868 -3.292284,1.446111 -4.546705,0 -1.254421,-1.44611 -1.255945,-3.793624 0,-5.241492 L 74.552329,43.821296 64.359968,32.071428 c -1.254421,-1.451382 -1.254421,-3.797139 0.0015,-5.243249 z"
   id="path9-1"
   inkscape:connector-curvature="0" /><path
   style="fill:#000000"
   inkscape:connector-curvature="0"
   d="m 50.186604,31.206583 c -6.470383,0 -11.715518,5.379279 -11.715518,12.015141 0,6.635862 5.245135,12.015143 11.715518,12.015143 6.470383,0 11.715518,-5.379281 11.715518,-12.015143 0,-6.635862 -5.245135,-12.015141 -11.715518,-12.015141 z m 6.347858,13.430925 -4.559289,4.677894 c -0.760044,0.778481 -1.380479,0.514649 -1.380479,-0.586739 v -3.629574 h -5.372541 c -1.073434,0 -1.952098,-0.845065 -1.952098,-1.877365 0,-1.032301 0.878664,-1.877366 1.952098,-1.877366 h 5.372541 v -3.629574 c 0,-1.101388 0.620435,-1.36522 1.380479,-0.586739 l 4.559289,4.677894 c 0.759068,0.778481 0.759068,2.053088 0,2.831569 z"
   id="path3" /></svg>