<?xml version="1.0" encoding="UTF-8" standalone="no"?>
<svg
   xmlns:dc="http://purl.org/dc/elements/1.1/"
   xmlns:cc="http://creativecommons.org/ns#"
   xmlns:rdf="http://www.w3.org/1999/02/22-rdf-syntax-ns#"
   xmlns:svg="http://www.w3.org/2000/svg"
   xmlns="http://www.w3.org/2000/svg"
   xmlns:sodipodi="http://sodipodi.sourceforge.net/DTD/sodipodi-0.dtd"
   xmlns:inkscape="http://www.inkscape.org/namespaces/inkscape"
   version="1.1"
   id="Your_Icon"
   x="0px"
   y="0px"
   width="100px"
   height="100px"
   viewBox="0 0 100 100"
   enable-background="new 0 0 100 100"
   xml:space="preserve"
   inkscape:version="0.48.4 r9939"
   sodipodi:docname="reverse_win.svg"><metadata
   id="metadata27"><rdf:RDF><cc:Work
       rdf:about=""><dc:format>image/svg+xml</dc:format><dc:type
         rdf:resource="http://purl.org/dc/dcmitype/StillImage" /></cc:Work></rdf:RDF></metadata><defs
   id="defs25" /><sodipodi:namedview
   pagecolor="#ffffff"
   bordercolor="#666666"
   borderopacity="1"
   objecttolerance="10"
   gridtolerance="10"
   guidetolerance="10"
   inkscape:pageopacity="0"
   inkscape:pageshadow="2"
   inkscape:window-width="1430"
   inkscape:window-height="955"
   id="namedview23"
   showgrid="false"
   inkscape:zoom="6.675088"
   inkscape:cx="50"
   inkscape:cy="52.338662"
   inkscape:window-x="0"
   inkscape:window-y="0"
   inkscape:window-maximized="0"
   inkscape:current-layer="Your_Icon" />
<path
   d="M62.193,11.333v24.785h-24V11.333c0-0.368-0.112-0.701-0.293-0.943C37.719,10.149,37.469,10,37.193,10  c-0.552,0-1,0.597-1,1.333v24.785H11.436c-0.367,0-0.699,0.112-0.94,0.293c-0.241,0.181-0.39,0.431-0.39,0.707  c0,0.552,0.596,1,1.33,1h24.757v24H11.436c-0.367,0-0.699,0.112-0.94,0.293c-0.241,0.181-0.39,0.431-0.39,0.707  c0,0.552,0.596,1,1.33,1h24.757v24.549c0,0.368,0.112,0.701,0.293,0.943c0.181,0.241,0.431,0.39,0.707,0.39c0.552,0,1-0.597,1-1.333  V64.118h24v24.549c0,0.368,0.112,0.701,0.293,0.943c0.181,0.241,0.431,0.39,0.707,0.39c0.552,0,1-0.597,1-1.333V64.118h24.372  c0.367,0,0.699-0.112,0.94-0.293c0.24-0.181,0.389-0.431,0.389-0.707c0-0.552-0.595-1-1.329-1H64.193v-24h24.372  c0.367,0,0.699-0.112,0.94-0.293c0.24-0.181,0.389-0.431,0.389-0.707c0-0.552-0.595-1-1.329-1H64.193V11.333  c0-0.368-0.112-0.701-0.293-0.943C63.719,10.149,63.469,10,63.193,10C62.641,10,62.193,10.597,62.193,11.333z M62.193,62.118h-24  v-24h24V62.118z"
   id="path3" />


<path
   d="m 14.326189,14.380927 c 0.823,-0.824 2.159,-0.825 2.983,0 l 6.687,6.687 6.687,-6.687 c 0.824,-0.825 2.16,-0.823 2.983,0 0.412,0.412 0.618,0.952 0.618,1.492 -10e-4,0.539 -0.206,1.079 -0.618,1.492 l -6.687,6.687 6.687,6.687 c 0.824,0.824 0.823,2.16 0,2.983 -0.412,0.412 -0.952,0.618 -1.492,0.619 -0.539,-10e-4 -1.079,-0.206 -1.492,-0.619 l -6.687,-6.687 -6.687,6.687 c -0.824,0.824 -2.16,0.823 -2.983,0 -0.823,-0.823 -0.824,-2.159 0,-2.983 l 6.687,-6.687 -6.687,-6.687 c -0.823,-0.826 -0.823,-2.161 10e-4,-2.984 z"
   id="path9"
   inkscape:connector-curvature="0" />




<path
   d="m 12.128757,76.498766 c 0,6.306 5.112,11.418 11.418,11.418 6.306,0 11.418,-5.112 11.418,-11.418 0,-6.306 -5.112,-11.418 -11.418,-11.418 -6.306,0 -11.418,5.112 -11.418,11.418 z m 20.149,0.075 c 0,4.863 -3.942,8.806 -8.806,8.806 -4.863,0 -8.806,-3.943 -8.806,-8.806 0,-4.864 3.943,-8.806 8.806,-8.806 4.864,0 8.806,3.942 8.806,8.806 z"
   id="path19"
   inkscape:connector-curvature="0" />
<path
   d="M64.726,24.065c0,6.306,5.112,11.418,11.418,11.418s11.418-5.112,11.418-11.418c0-6.306-5.112-11.418-11.418-11.418  S64.726,17.759,64.726,24.065z M84.875,24.14c0,4.863-3.942,8.806-8.806,8.806c-4.863,0-8.806-3.943-8.806-8.806  c0-4.864,3.943-8.806,8.806-8.806C80.933,15.334,84.875,19.276,84.875,24.14z"
   id="path21" />
<path
   inkscape:connector-curvature="0"
   d="m 38.468982,23.596513 c 0,6.306 5.112,11.418 11.418,11.418 6.306,0 11.418,-5.112 11.418,-11.418 0,-6.306 -5.112,-11.418 -11.418,-11.418 -6.306,0 -11.418,5.112 -11.418,11.418 z m 20.149,0.075 c 0,4.863 -3.942,8.806 -8.806,8.806 -4.863,0 -8.806,-3.943 -8.806,-8.806 0,-4.864 3.943,-8.806 8.806,-8.806 4.864,0 8.806,3.942 8.806,8.806 z"
   id="path21-7" /><path
   inkscape:connector-curvature="0"
   d="m 11.652857,50.412638 c 0,6.306 5.112,11.418 11.418,11.418 6.306,0 11.418,-5.112 11.418,-11.418 0,-6.306 -5.112,-11.418 -11.418,-11.418 -6.306,0 -11.418,5.112 -11.418,11.418 z m 20.149,0.075 c 0,4.863 -3.942,8.806 -8.806,8.806 -4.863,0 -8.806,-3.943 -8.806,-8.806 0,-4.864 3.943,-8.806 8.806,-8.806 4.864,0 8.806,3.942 8.806,8.806 z"
   id="path21-0" /><path
   inkscape:connector-curvature="0"
   d="m 67.333043,40.591641 c 0.823,-0.823 2.159,-0.824 2.983,0 l 6.687,6.687 6.687,-6.687 c 0.824,-0.824 2.16,-0.823 2.983,0 0.412,0.412 0.618,0.952 0.618,1.492 -0.001,0.539 -0.206,1.079 -0.618,1.492 l -6.687,6.687 6.687,6.687 c 0.824,0.824 0.823,2.16 0,2.983 -0.412,0.412 -0.952,0.618 -1.492,0.619 -0.539,-10e-4 -1.079,-0.206 -1.492,-0.619 l -6.687,-6.687 -6.687,6.687 c -0.824,0.824 -2.16,0.823 -2.983,0 -0.823,-0.823 -0.824,-2.159 0,-2.983 l 6.687,-6.687 -6.687,-6.687 c -0.823,-0.825 -0.822,-2.16 0.001,-2.984 z"
   id="path15-9" /><path
   inkscape:connector-curvature="0"
   d="m 40.367107,66.808524 c 0.823,-0.823 2.159,-0.824 2.983,0 l 6.686999,6.687 6.687,-6.687 c 0.824,-0.824 2.16,-0.823 2.983,0 0.412,0.412 0.618,0.952 0.618,1.492 -10e-4,0.539 -0.206,1.079 -0.618,1.492 l -6.687,6.687 6.687,6.687 c 0.824,0.824 0.823,2.16 0,2.983 -0.412,0.412 -0.952,0.618 -1.492,0.619 -0.539,-0.001 -1.079,-0.206 -1.492,-0.619 l -6.687,-6.687 -6.686999,6.687 c -0.824,0.824 -2.16,0.823 -2.983,0 -0.823,-0.823 -0.824,-2.159 0,-2.983 l 6.687,-6.687 -6.687,-6.687 c -0.823,-0.825 -0.822,-2.16 10e-4,-2.984 z"
   id="path15-4" /><path
   inkscape:connector-curvature="0"
   d="m 40.516916,40.591641 c 0.823,-0.823 2.159,-0.824 2.983,0 l 6.687,6.687 6.687,-6.687 c 0.824,-0.824 2.16,-0.823 2.983,0 0.412,0.412 0.618,0.952 0.618,1.492 -10e-4,0.539 -0.206,1.079 -0.618,1.492 l -6.687,6.687 6.687,6.687 c 0.824,0.824 0.823,2.16 0,2.983 -0.412,0.412 -0.952,0.618 -1.492,0.619 -0.539,-10e-4 -1.079,-0.206 -1.492,-0.619 l -6.687,-6.687 -6.687,6.687 c -0.824,0.824 -2.16,0.823 -2.983,0 -0.823,-0.823 -0.824,-2.159 0,-2.983 l 6.687,-6.687 -6.687,-6.687 c -0.823,-0.825 -0.822,-2.16 0.001,-2.984 z"
   id="path15-9-7" /><path
   inkscape:connector-curvature="0"
   d="m 67.482853,66.808524 c 0.823001,-0.823 2.159001,-0.824 2.983001,0 l 6.686999,6.687 6.687,-6.687 c 0.824,-0.824 2.16,-0.823 2.983,0 0.412,0.412 0.618,0.952 0.618,1.492 -0.001,0.539 -0.206,1.079 -0.618,1.492 l -6.687,6.687 6.687,6.687 c 0.824,0.824 0.823,2.16 0,2.983 -0.412,0.412 -0.952,0.618 -1.492,0.619 -0.539,-0.001 -1.079,-0.206 -1.492,-0.619 l -6.687,-6.687 -6.686999,6.687 c -0.824,0.824 -2.16,0.823 -2.983001,0 -0.823,-0.823 -0.824,-2.159 0,-2.983 l 6.687001,-6.687 -6.687001,-6.687 c -0.823,-0.825 -0.822,-2.16 0.001,-2.984 z"
   id="path15-9-1" /><path
   d="m 39.073728,2.7782599 c 0.261686,-0.24518 0.68649,-0.245477 0.948495,0 l 2.126243,1.989707 2.126244,-1.989707 c 0.262004,-0.245477 0.686808,-0.244882 0.948494,0 0.131003,0.12259 0.196504,0.283267 0.196504,0.443943 -3.15e-4,0.160378 -0.0655,0.321055 -0.196504,0.443942 l -2.126243,1.989707 2.126243,1.989707 c 0.262005,0.24518 0.261687,0.642704 0,0.887587 -0.131002,0.12259 -0.302704,0.183885 -0.474406,0.184182 -0.171384,-2.94e-4 -0.343086,-0.0613 -0.474406,-0.184182 l -2.126244,-1.989707 -2.126243,1.989707 c -0.262005,0.24518 -0.686808,0.244882 -0.948495,0 -0.261687,-0.244883 -0.262005,-0.642407 0,-0.887587 l 2.126243,-1.989707 -2.126243,-1.989707 c -0.261687,-0.245775 -0.261687,-0.643002 3.15e-4,-0.887885 z"
   id="path9-1"
   inkscape:connector-curvature="0" /><path
   d="m 54.315023,5.6270809 c 0,1.717547 1.473409,3.109888 3.290959,3.109888 1.817549,0 3.290958,-1.392341 3.290958,-3.109888 0,-1.717547 -1.473409,-3.109887 -3.290958,-3.109887 -1.81755,0 -3.290959,1.39234 -3.290959,3.109887 z m 5.807455,0.02043 c 0,1.324521 -1.136185,2.398464 -2.538113,2.398464 -1.401641,0 -2.538114,-1.073943 -2.538114,-2.398464 0,-1.324794 1.136473,-2.398465 2.538114,-2.398465 1.401928,0 2.538113,1.073671 2.538113,2.398465 z"
   id="path21-74"
   inkscape:connector-curvature="0" /><path
   style="fill:#000000"
   inkscape:connector-curvature="0"
   d="m 49.742177,2.2931059 c -2.107807,0 -3.816473,1.455594 -3.816473,3.25121 0,1.795616 1.708666,3.25121 3.816473,3.25121 2.107806,0 3.816473,-1.455594 3.816473,-3.25121 0,-1.795616 -1.708667,-3.25121 -3.816473,-3.25121 z m 2.067892,3.634311 -1.485244,1.265805 c -0.247594,0.210651 -0.449708,0.13926 -0.449708,-0.158768 v -0.982136 h -1.750171 c -0.349684,0 -0.63592,-0.228669 -0.63592,-0.508002 0,-0.279333 0.286236,-0.508001 0.63592,-0.508001 h 1.750171 v -0.982137 c 0,-0.298027 0.202114,-0.369419 0.449708,-0.158767 l 1.485244,1.265804 c 0.247276,0.210652 0.247276,0.555551 0,0.766202 z"
   id="path3-0" /></svg>