<?xml version="1.0" encoding="UTF-8" standalone="no"?>
<svg
   xmlns:dc="http://purl.org/dc/elements/1.1/"
   xmlns:cc="http://creativecommons.org/ns#"
   xmlns:rdf="http://www.w3.org/1999/02/22-rdf-syntax-ns#"
   xmlns:svg="http://www.w3.org/2000/svg"
   xmlns="http://www.w3.org/2000/svg"
   xmlns:sodipodi="http://sodipodi.sourceforge.net/DTD/sodipodi-0.dtd"
   xmlns:inkscape="http://www.inkscape.org/namespaces/inkscape"
   version="1.1"
   id="Your_Icon"
   x="0px"
   y="0px"
   width="100px"
   height="100px"
   viewBox="0 0 100 100"
   enable-background="new 0 0 100 100"
   xml:space="preserve"
   inkscape:version="0.48.4 r9939"
   sodipodi:docname="three_way.svg"><metadata
   id="metadata27"><rdf:RDF><cc:Work
       rdf:about=""><dc:format>image/svg+xml</dc:format><dc:type
         rdf:resource="http://purl.org/dc/dcmitype/StillImage" /></cc:Work></rdf:RDF></metadata><defs
   id="defs25" /><sodipodi:namedview
   pagecolor="#ffffff"
   bordercolor="#666666"
   borderopacity="1"
   objecttolerance="10"
   gridtolerance="10"
   guidetolerance="10"
   inkscape:pageopacity="0"
   inkscape:pageshadow="2"
   inkscape:window-width="1430"
   inkscape:window-height="955"
   id="namedview23"
   showgrid="false"
   inkscape:zoom="6.675088"
   inkscape:cx="50"
   inkscape:cy="50"
   inkscape:window-x="0"
   inkscape:window-y="0"
   inkscape:window-maximized="0"
   inkscape:current-layer="Your_Icon" />
<path
   d="M62.193,11.333v24.785h-24V11.333c0-0.368-0.112-0.701-0.293-0.943C37.719,10.149,37.469,10,37.193,10  c-0.552,0-1,0.597-1,1.333v24.785H11.436c-0.367,0-0.699,0.112-0.94,0.293c-0.241,0.181-0.39,0.431-0.39,0.707  c0,0.552,0.596,1,1.33,1h24.757v24H11.436c-0.367,0-0.699,0.112-0.94,0.293c-0.241,0.181-0.39,0.431-0.39,0.707  c0,0.552,0.596,1,1.33,1h24.757v24.549c0,0.368,0.112,0.701,0.293,0.943c0.181,0.241,0.431,0.39,0.707,0.39c0.552,0,1-0.597,1-1.333  V64.118h24v24.549c0,0.368,0.112,0.701,0.293,0.943c0.181,0.241,0.431,0.39,0.707,0.39c0.552,0,1-0.597,1-1.333V64.118h24.372  c0.367,0,0.699-0.112,0.94-0.293c0.24-0.181,0.389-0.431,0.389-0.707c0-0.552-0.595-1-1.329-1H64.193v-24h24.372  c0.367,0,0.699-0.112,0.94-0.293c0.24-0.181,0.389-0.431,0.389-0.707c0-0.552-0.595-1-1.329-1H64.193V11.333  c0-0.368-0.112-0.701-0.293-0.943C63.719,10.149,63.469,10,63.193,10C62.641,10,62.193,10.597,62.193,11.333z M62.193,62.118h-24  v-24h24V62.118z"
   id="path3" />


<path
   d="m 14.326189,14.380927 c 0.823,-0.824 2.159,-0.825 2.983,0 l 6.687,6.687 6.687,-6.687 c 0.824,-0.825 2.16,-0.823 2.983,0 0.412,0.412 0.618,0.952 0.618,1.492 -10e-4,0.539 -0.206,1.079 -0.618,1.492 l -6.687,6.687 6.687,6.687 c 0.824,0.824 0.823,2.16 0,2.983 -0.412,0.412 -0.952,0.618 -1.492,0.619 -0.539,-10e-4 -1.079,-0.206 -1.492,-0.619 l -6.687,-6.687 -6.687,6.687 c -0.824,0.824 -2.16,0.823 -2.983,0 -0.823,-0.823 -0.824,-2.159 0,-2.983 l 6.687,-6.687 -6.687,-6.687 c -0.823,-0.826 -0.823,-2.161 10e-4,-2.984 z"
   id="path9"
   inkscape:connector-curvature="0" />






<path
   inkscape:connector-curvature="0"
   d="m 38.468982,23.596513 c 0,6.306 5.112,11.418 11.418,11.418 6.306,0 11.418,-5.112 11.418,-11.418 0,-6.306 -5.112,-11.418 -11.418,-11.418 -6.306,0 -11.418,5.112 -11.418,11.418 z m 20.149,0.075 c 0,4.863 -3.942,8.806 -8.806,8.806 -4.863,0 -8.806,-3.943 -8.806,-8.806 0,-4.864 3.943,-8.806 8.806,-8.806 4.864,0 8.806,3.942 8.806,8.806 z"
   id="path21-7" /><path
   inkscape:connector-curvature="0"
   d="m 11.652857,50.412638 c 0,6.306 5.112,11.418 11.418,11.418 6.306,0 11.418,-5.112 11.418,-11.418 0,-6.306 -5.112,-11.418 -11.418,-11.418 -6.306,0 -11.418,5.112 -11.418,11.418 z m 20.149,0.075 c 0,4.863 -3.942,8.806 -8.806,8.806 -4.863,0 -8.806,-3.943 -8.806,-8.806 0,-4.864 3.943,-8.806 8.806,-8.806 4.864,0 8.806,3.942 8.806,8.806 z"
   id="path21-0" /><path
   inkscape:connector-curvature="0"
   d="m 67.333043,40.591641 c 0.823,-0.823 2.159,-0.824 2.983,0 l 6.687,6.687 6.687,-6.687 c 0.824,-0.824 2.16,-0.823 2.983,0 0.412,0.412 0.618,0.952 0.618,1.492 -0.001,0.539 -0.206,1.079 -0.618,1.492 l -6.687,6.687 6.687,6.687 c 0.824,0.824 0.823,2.16 0,2.983 -0.412,0.412 -0.952,0.618 -1.492,0.619 -0.539,-10e-4 -1.079,-0.206 -1.492,-0.619 l -6.687,-6.687 -6.687,6.687 c -0.824,0.824 -2.16,0.823 -2.983,0 -0.823,-0.823 -0.824,-2.159 0,-2.983 l 6.687,-6.687 -6.687,-6.687 c -0.823,-0.825 -0.822,-2.16 0.001,-2.984 z"
   id="path15-9" /><path
   inkscape:connector-curvature="0"
   d="m 40.516916,40.591641 c 0.823,-0.823 2.159,-0.824 2.983,0 l 6.687,6.687 6.687,-6.687 c 0.824,-0.824 2.16,-0.823 2.983,0 0.412,0.412 0.618,0.952 0.618,1.492 -10e-4,0.539 -0.206,1.079 -0.618,1.492 l -6.687,6.687 6.687,6.687 c 0.824,0.824 0.823,2.16 0,2.983 -0.412,0.412 -0.952,0.618 -1.492,0.619 -0.539,-10e-4 -1.079,-0.206 -1.492,-0.619 l -6.687,-6.687 -6.687,6.687 c -0.824,0.824 -2.16,0.823 -2.983,0 -0.823,-0.823 -0.824,-2.159 0,-2.983 l 6.687,-6.687 -6.687,-6.687 c -0.823,-0.825 -0.822,-2.16 0.001,-2.984 z"
   id="path15-9-7" /><path
   inkscape:connector-curvature="0"
   d="m 68.381718,12.277408 c 0.823,-0.823 2.159,-0.824 2.983,0 l 6.687,6.687 6.687,-6.687 c 0.823995,-0.824 2.159995,-0.823 2.982995,0 0.412,0.412 0.618,0.952 0.618,1.492 -0.001,0.539 -0.206,1.079 -0.618,1.492 l -6.686995,6.686999 6.686995,6.687 c 0.824,0.824 0.823,2.16 0,2.983 -0.412,0.412 -0.952,0.618 -1.492,0.619 -0.539,-10e-4 -1.079,-0.206 -1.491995,-0.619 l -6.687,-6.687 -6.687,6.687 c -0.824,0.824 -2.16,0.823 -2.983,0 -0.823,-0.823 -0.824,-2.159 0,-2.983 l 6.687,-6.687 -6.687,-6.686999 c -0.823,-0.825 -0.822,-2.16 0.001,-2.984 z"
   id="path15-9-1" /><path
   inkscape:connector-curvature="0"
   d="m 67.482854,66.508902 c 0.823,-0.823 2.159,-0.824 2.983,0 l 6.687,6.687 6.687,-6.687 c 0.824,-0.824 2.16,-0.823 2.983,0 0.412,0.412 0.618,0.952 0.618,1.492 -0.001,0.539 -0.206,1.079 -0.618,1.492 l -6.687,6.687 6.687,6.687 c 0.824,0.824 0.823,2.16 0,2.983 -0.412,0.412 -0.952,0.618 -1.492,0.619 -0.539,-0.001 -1.079,-0.206 -1.492,-0.619 l -6.687,-6.687 -6.687,6.687 c -0.824,0.824 -2.16,0.823 -2.983,0 -0.823,-0.823 -0.824,-2.159 0,-2.983 l 6.687,-6.687 -6.687,-6.687 c -0.823,-0.825 -0.822,-2.16 0.001,-2.984 z"
   id="path15-9-74" /><path
   inkscape:connector-curvature="0"
   d="m 40.966349,66.359091 c 0.823,-0.823 2.159,-0.824 2.983,0 l 6.687,6.687 6.687,-6.687 c 0.824,-0.824 2.16,-0.823 2.983,0 0.412,0.412 0.618,0.952 0.618,1.492 -10e-4,0.539 -0.206,1.079 -0.618,1.492 l -6.687,6.687 6.687,6.687 c 0.824,0.824 0.823,2.16 0,2.983 -0.412,0.412 -0.952,0.618 -1.492,0.619 -0.539,-0.001 -1.079,-0.206 -1.492,-0.619 l -6.687,-6.687 -6.687,6.687 c -0.824,0.824 -2.16,0.823 -2.983,0 -0.823,-0.823 -0.824,-2.159 0,-2.983 l 6.687,-6.687 -6.687,-6.687 c -0.823,-0.825 -0.822,-2.16 10e-4,-2.984 z"
   id="path15-9-7-1" /><path
   inkscape:connector-curvature="0"
   d="m 12.951737,66.658712 c 0.823,-0.823 2.159,-0.824 2.983,0 l 6.687,6.687 6.687,-6.687 c 0.824,-0.824 2.16,-0.823 2.983,0 0.412,0.412 0.618,0.952 0.618,1.492 -10e-4,0.539 -0.206,1.079 -0.618,1.492 l -6.687,6.687 6.687,6.687 c 0.824,0.824 0.823,2.16 0,2.983 -0.412,0.412 -0.952,0.618 -1.492,0.619 -0.539,-0.001 -1.079,-0.206 -1.492,-0.619 l -6.687,-6.687 -6.687,6.687 c -0.824,0.824 -2.16,0.823 -2.983,0 -0.823,-0.823 -0.824,-2.159 0,-2.983 l 6.687,-6.687 -6.687,-6.687 c -0.823,-0.825 -0.822,-2.16 10e-4,-2.984 z"
   id="path15-9-7-7" /><path
   sodipodi:type="arc"
   style="opacity:0.34070794;fill:#ff0000;fill-opacity:0;fill-rule:nonzero;stroke:#ffffff;stroke-width:2;stroke-linecap:butt;stroke-linejoin:miter;stroke-miterlimit:4;stroke-opacity:0;stroke-dasharray:none;stroke-dashoffset:0"
   id="path3020"
   sodipodi:cx="-20.299358"
   sodipodi:cy="24.420471"
   sodipodi:rx="10.561659"
   sodipodi:ry="10.112226"
   d="m -9.7376995,24.420471 a 10.561659,10.112226 0 0 1 -8.6866095,9.95159 l -1.875049,-9.95159 z"
   sodipodi:start="0"
   sodipodi:end="1.3923167" /></svg>