<svg xmlns="http://www.w3.org/2000/svg" xmlns:xlink="http://www.w3.org/1999/xlink" xmlns:a="http://ns.adobe.com/AdobeSVGViewerExtensions/3.0/" version="1.1" x="0px" y="0px" width="100px" height="100px" viewBox="19.25 0.246 100 100" overflow="visible" enable-background="new 19.25 0.246 100 100" xml:space="preserve">
<defs>
</defs>
<polygon fill="none" stroke="#000000" stroke-width="4" points="116.25,95.246 98.25,59.246 104.25,53.246 94.25,47.246   113.25,44.246 98.25,36.246 113.25,26.246 98.25,25.246 105.25,4.246 87.25,14.246 83.25,7.246 71.25,13.246 62.25,5.246   56.25,17.246 39.25,5.246 43.25,24.246 25.25,25.246 37.25,38.246 25.25,44.246 36.25,47.246 23.25,60.246 38.25,64.246   24.25,93.246 50.25,80.246 51.25,95.246 64.25,79.246 75.25,95.246 80.25,77.246 87.25,79.246 86.25,70.246 "/>
</svg>