<?xml version="1.0" encoding="utf-8"?>
<!-- Generator: Adobe Illustrator 16.0.0, SVG Export Plug-In . SVG Version: 6.00 Build 0)  -->
<!DOCTYPE svg PUBLIC "-//W3C//DTD SVG 1.1//EN" "http://www.w3.org/Graphics/SVG/1.1/DTD/svg11.dtd">
<svg version="1.1" id="Layer_1" xmlns="http://www.w3.org/2000/svg" xmlns:xlink="http://www.w3.org/1999/xlink" x="0px" y="0px"
	 width="89.903px" height="100px" viewBox="5.048 0.001 89.903 100" enable-background="new 5.048 0.001 89.903 100"
	 xml:space="preserve">
<g id="Your_Icon">
	<rect x="20.064" y="34.656" width="23.986" height="2.811"/>
	<rect x="20.064" y="46.651" width="59.967" height="2.717"/>
	<path d="M55.993,1.95c-1.767-1.3-3.856-1.949-5.946-1.949c-2.088,0-4.182,0.649-5.95,1.949L5.048,30.437V94.52
		c0,3.026,2.451,5.481,5.48,5.481h78.943c3.027,0,5.479-2.455,5.479-5.481l0,0v-64.09L55.993,1.95z M14.05,67.454V28.549h71.899
		v38.905H71.037l15.956,12.562c0,0-22.159-13.327-31.896-18.256c-0.258-0.132-0.495-0.197-0.745-0.306h25.679v-2.999H20.064v2.999
		h25.55c-0.436,0.204-0.792,0.393-0.992,0.49c-9.84,4.841-31.516,18.07-31.516,18.07l15.958-12.562L14.05,67.454L14.05,67.454z"/>
	<rect x="20.064" y="52.553" width="59.967" height="2.906"/>
</g>
</svg>
