<svg xmlns="http://www.w3.org/2000/svg" xmlns:xlink="http://www.w3.org/1999/xlink" version="1.1" id="Layer_1" x="0px" y="0px" width="100px" height="100px" viewBox="0 -16.078 100 100" enable-background="new 0 -16.078 100 100" xml:space="preserve">
<g>
	<g>
		<path d="M14.642,23.078c5.006,0,9.079,4.079,9.079,9.092c0,5.014-4.073,9.093-9.079,9.093c-5.021,0-9.105-4.079-9.105-9.093    c0-2.428,0.945-4.71,2.661-6.426C9.917,24.024,12.205,23.078,14.642,23.078 M14.642,21.078c-6.147,0-11.106,4.972-11.105,11.092    c0,6.134,4.959,11.093,11.105,11.093c6.107,0,11.079-4.959,11.079-11.093C25.721,26.05,20.749,21.078,14.642,21.078L14.642,21.078    z"/>
	</g>
	<path d="M85.359,21.078c-6.106,0-11.08,4.972-11.08,11.092c0,6.134,4.974,11.093,11.08,11.093c6.146,0,11.118-4.959,11.118-11.093   C96.477,26.05,91.504,21.078,85.359,21.078L85.359,21.078z"/>
	<g>
		<path d="M17.633,47.861c2.325,0,4.063,1.022,5.121,1.891c0.196,0.17,0.393,0.277,0.546,0.346c1.73,1.195,3.136,2.948,4.625,4.807    c2.837,3.514,6.618,8.195,14.839,10.531c-0.756,1.581-1.071,3.333-0.884,5.087c0.019,0.162,0.042,0.324,0.07,0.485    c-5.045-1.312-9.292-3.513-12.907-6.675l-3.317-2.9v4.406v16.083H3.542V55.945c0-4.457,3.632-8.083,8.097-8.084H17.633     M17.633,45.861h-5.995C6.085,45.862,1.542,50.394,1.542,55.945v27.977h26.185V65.839c3.823,3.344,9.225,6.524,17.528,7.912    c-0.694-1.009-1.237-2.146-1.388-3.458c-0.252-2.36,0.656-4.544,2.197-6.133c-9.39-1.793-13.239-6.372-16.582-10.513    c-1.628-2.031-3.18-3.962-5.237-5.325c-0.063-0.038-0.138-0.038-0.189-0.089C22.301,46.781,20.08,45.861,17.633,45.861    L17.633,45.861z"/>
	</g>
	<path d="M88.376,45.862h-6.008c-2.435,0-4.668,0.921-6.409,2.373c-0.062,0.05-0.14,0.05-0.189,0.087   c-2.058,1.363-3.609,3.282-5.25,5.327c-3.672,4.543-7.836,9.729-19.484,11.017c-2.636,0.302-4.528,2.674-4.239,5.312   c0.264,2.461,2.347,4.278,4.769,4.278c0.177,0,0.354-0.015,0.543-0.025c9.868-1.098,15.977-4.606,20.179-8.329v18.021h26.171   V55.945C98.458,50.394,93.915,45.862,88.376,45.862L88.376,45.862z"/>
</g>
</svg>