<svg xmlns="http://www.w3.org/2000/svg" xmlns:xlink="http://www.w3.org/1999/xlink" version="1.1" id="Layer_1" x="0px" y="0px" width="100.0px" height="100px" viewBox="0 0 300 300" enable-background="new 0 0 300 300" xml:space="preserve">
<g>
	<path fill="#000000" d="M106.274,285.383c-0.81,0-1.629-0.161-2.41-0.496c-2.639-1.136-4.133-3.959-3.588-6.779l19.989-103.124   l-31.336,0.062c-0.003,0-0.01,0-0.013,0c-2.271,0-4.355-1.259-5.414-3.271c-1.055-2.018-0.907-4.453,0.394-6.324L186.748,17.247   c1.632-2.362,4.682-3.265,7.356-2.165c2.655,1.097,4.188,3.898,3.682,6.728l-18.921,105.676l31.442-0.064c0.004,0,0.01,0,0.014,0   c2.287,0,4.381,1.274,5.43,3.307c1.052,2.036,0.875,4.491-0.455,6.356L111.252,282.821   C110.075,284.467,108.204,285.383,106.274,285.383z M127.679,162.745c1.823,0,3.549,0.813,4.71,2.217   c1.165,1.41,1.639,3.265,1.291,5.056l-16.059,82.839l80.806-113.188l-26.854,0.055c-0.003,0-0.01,0-0.013,0   c-1.808,0-3.523-0.797-4.686-2.185c-1.161-1.387-1.651-3.22-1.332-5.004l15.271-85.297l-80.2,115.56l27.051-0.052   C127.669,162.745,127.676,162.745,127.679,162.745z"/>
</g>
</svg>