<?xml version="1.0" encoding="UTF-8" standalone="no"?>
<svg
   xmlns:dc="http://purl.org/dc/elements/1.1/"
   xmlns:cc="http://creativecommons.org/ns#"
   xmlns:rdf="http://www.w3.org/1999/02/22-rdf-syntax-ns#"
   xmlns:svg="http://www.w3.org/2000/svg"
   xmlns="http://www.w3.org/2000/svg"
   xmlns:sodipodi="http://sodipodi.sourceforge.net/DTD/sodipodi-0.dtd"
   xmlns:inkscape="http://www.inkscape.org/namespaces/inkscape"
   version="1.1"
   id="Layer_1"
   x="0px"
   y="0px"
   width="100px"
   height="100px"
   viewBox="0 0 100 100"
   style="enable-background:new 0 0 100 100;"
   xml:space="preserve"
   inkscape:version="0.48.4 r9939"
   sodipodi:docname="swap_icon_17858.svg"><metadata
   id="metadata13"><rdf:RDF><cc:Work
       rdf:about=""><dc:format>image/svg+xml</dc:format><dc:type
         rdf:resource="http://purl.org/dc/dcmitype/StillImage" /></cc:Work></rdf:RDF></metadata><defs
   id="defs11" /><sodipodi:namedview
   pagecolor="#ffffff"
   bordercolor="#666666"
   borderopacity="1"
   objecttolerance="10"
   gridtolerance="10"
   guidetolerance="10"
   inkscape:pageopacity="0"
   inkscape:pageshadow="2"
   inkscape:window-width="640"
   inkscape:window-height="480"
   id="namedview9"
   showgrid="false"
   inkscape:zoom="2.36"
   inkscape:cx="50"
   inkscape:cy="50"
   inkscape:window-x="0"
   inkscape:window-y="0"
   inkscape:window-maximized="0"
   inkscape:current-layer="Layer_1" />
<g
   id="g3"
   transform="matrix(0,1,-1,0,99.999518,-5.1820543e-4)">
	<path
   d="M 75.33,27.958 54.345,10.673 v 9.874 c -0.021,0 -0.038,0 -0.056,0 -6.155,0.219 -11.598,1.118 -16.228,2.795 -5.203,1.869 -9.492,4.408 -12.891,7.6 -2.688,2.533 -4.81,5.416 -6.402,8.625 -0.42,0.845 -0.827,1.691 -1.171,2.58 -1.656,4.269 -2.815,8.904 -2.478,13.667 0.081,1.176 0.733,4.688 1.49,4.688 0,0 0.943,-4.92 4.758,-10.557 1.171,-1.722 2.533,-3.349 4.104,-4.849 l 0.177,0.143 V 44.93 c 0.976,-0.917 2.013,-1.797 3.188,-2.592 3.177,-2.154 7.067,-3.863 11.665,-5.124 3.765,-1.03 8.057,-1.63 12.803,-1.853 h 1.046 l -0.006,9.877 20.986,-17.28 z"
   id="path5"
   inkscape:connector-curvature="0" />
	<path
   d="m 24.671,72.041 20.984,17.285 v -9.873 c 0.021,0 0.038,0 0.059,0 6.152,-0.219 11.595,-1.119 16.225,-2.797 5.203,-1.869 9.492,-4.408 12.891,-7.6 2.69,-2.533 4.81,-5.416 6.402,-8.623 0.42,-0.846 0.827,-1.693 1.171,-2.58 1.657,-4.27 2.815,-8.905 2.478,-13.668 -0.081,-1.179 -0.73,-4.688 -1.487,-4.688 0,0 -0.946,4.922 -4.761,10.559 -1.171,1.72 -2.533,3.349 -4.103,4.847 L 74.355,54.76 v 0.309 c -0.979,0.918 -2.016,1.795 -3.191,2.592 -3.177,2.154 -7.067,3.865 -11.665,5.125 -3.765,1.031 -8.057,1.631 -12.803,1.852 H 45.65 l 0.006,-9.877 -20.985,17.28 z"
   id="path7"
   inkscape:connector-curvature="0" />
</g>
</svg>