<?xml version="1.0" encoding="UTF-8" standalone="no"?>
<svg
   xmlns:dc="http://purl.org/dc/elements/1.1/"
   xmlns:cc="http://creativecommons.org/ns#"
   xmlns:rdf="http://www.w3.org/1999/02/22-rdf-syntax-ns#"
   xmlns:svg="http://www.w3.org/2000/svg"
   xmlns="http://www.w3.org/2000/svg"
   xmlns:sodipodi="http://sodipodi.sourceforge.net/DTD/sodipodi-0.dtd"
   xmlns:inkscape="http://www.inkscape.org/namespaces/inkscape"
   version="1.1"
   id="Your_Icon"
   x="0px"
   y="0px"
   width="100px"
   height="100px"
   viewBox="0 0 100 100"
   enable-background="new 0 0 100 100"
   xml:space="preserve"
   inkscape:version="0.48.4 r9939"
   sodipodi:docname="chaoTicTacToe.svg"
   inkscape:export-filename="E:\projects\ChaoticTacToe\ChaoTic-Tac-Toe\rawAssets\chaoTicTacToe.png"
   inkscape:export-xdpi="129.60001"
   inkscape:export-ydpi="129.60001"><metadata
   id="metadata27"><rdf:RDF><cc:Work
       rdf:about=""><dc:format>image/svg+xml</dc:format><dc:type
         rdf:resource="http://purl.org/dc/dcmitype/StillImage" /></cc:Work></rdf:RDF></metadata><defs
   id="defs25"><inkscape:perspective
   sodipodi:type="inkscape:persp3d"
   inkscape:vp_x="0 : 50 : 1"
   inkscape:vp_y="0 : 1000 : 0"
   inkscape:vp_z="100 : 50 : 1"
   inkscape:persp3d-origin="50 : 33.333333 : 1"
   id="perspective3359" />
	

		
		
		
		
	
			
			
			
		
			
		</defs><sodipodi:namedview
   pagecolor="#ffffff"
   bordercolor="#666666"
   borderopacity="1"
   objecttolerance="10"
   gridtolerance="10"
   guidetolerance="10"
   inkscape:pageopacity="0"
   inkscape:pageshadow="2"
   inkscape:window-width="1920"
   inkscape:window-height="1018"
   id="namedview23"
   showgrid="false"
   inkscape:zoom="7.3450717"
   inkscape:cx="50"
   inkscape:cy="50"
   inkscape:window-x="-8"
   inkscape:window-y="-8"
   inkscape:window-maximized="1"
   inkscape:current-layer="Your_Icon" />
<rect
   style="fill:#f2f2f2;fill-opacity:1;fill-rule:nonzero;stroke:#000000;stroke-width:2.5;stroke-linecap:square;stroke-linejoin:bevel;stroke-miterlimit:4;stroke-opacity:1;stroke-dasharray:none;stroke-dashoffset:0"
   id="rect3403"
   width="95.301994"
   height="93.804398"
   x="2.9952056"
   y="2.6558175"
   rx="11.73429" /><path
   d="M62.193,11.333v24.785h-24V11.333c0-0.368-0.112-0.701-0.293-0.943C37.719,10.149,37.469,10,37.193,10  c-0.552,0-1,0.597-1,1.333v24.785H11.436c-0.367,0-0.699,0.112-0.94,0.293c-0.241,0.181-0.39,0.431-0.39,0.707  c0,0.552,0.596,1,1.33,1h24.757v24H11.436c-0.367,0-0.699,0.112-0.94,0.293c-0.241,0.181-0.39,0.431-0.39,0.707  c0,0.552,0.596,1,1.33,1h24.757v24.549c0,0.368,0.112,0.701,0.293,0.943c0.181,0.241,0.431,0.39,0.707,0.39c0.552,0,1-0.597,1-1.333  V64.118h24v24.549c0,0.368,0.112,0.701,0.293,0.943c0.181,0.241,0.431,0.39,0.707,0.39c0.552,0,1-0.597,1-1.333V64.118h24.372  c0.367,0,0.699-0.112,0.94-0.293c0.24-0.181,0.389-0.431,0.389-0.707c0-0.552-0.595-1-1.329-1H64.193v-24h24.372  c0.367,0,0.699-0.112,0.94-0.293c0.24-0.181,0.389-0.431,0.389-0.707c0-0.552-0.595-1-1.329-1H64.193V11.333  c0-0.368-0.112-0.701-0.293-0.943C63.719,10.149,63.469,10,63.193,10C62.641,10,62.193,10.597,62.193,11.333z M62.193,62.118h-24  v-24h24V62.118z"
   id="path3" />
<path
   d="m 11.512459,76.83697 c 0,6.306 5.112,11.418 11.418,11.418 6.306,0 11.418,-5.112 11.418,-11.418 0,-6.306 -5.112,-11.418 -11.418,-11.418 -6.306,0 -11.418,5.112 -11.418,11.418 z m 20.149,0.075 c 0,4.863 -3.942,8.806 -8.806,8.806 -4.863,0 -8.806,-3.943 -8.806,-8.806 0,-4.864 3.943,-8.806 8.806,-8.806 4.864,0 8.806,3.942 8.806,8.806 z"
   id="path5"
   inkscape:connector-curvature="0" />


<path
   d="m 13.828429,13.259061 c 0.823,-0.824 2.159,-0.825 2.983,0 l 6.687,6.687 6.687,-6.687 c 0.824,-0.825 2.16,-0.823 2.983,0 0.412,0.412 0.618,0.952 0.618,1.492 -10e-4,0.539 -0.206,1.079 -0.618,1.492 l -6.687,6.687 6.687,6.687 c 0.824,0.824 0.823,2.16 0,2.983 -0.412,0.412 -0.952,0.618 -1.492,0.619 -0.539,-0.001 -1.079,-0.206 -1.492,-0.619 l -6.687,-6.687 -6.687,6.687 c -0.824,0.824 -2.16,0.823 -2.983,0 -0.823,-0.823 -0.824,-2.159 0,-2.983 l 6.687,-6.687 -6.687,-6.687 c -0.824,-0.826 -0.823,-2.161 10e-4,-2.984 z"
   id="path11"
   inkscape:connector-curvature="0" />

<path
   d="M66.474,66.598c0.823-0.823,2.159-0.824,2.983,0l6.687,6.687l6.687-6.687c0.824-0.824,2.16-0.823,2.983,0  c0.412,0.412,0.618,0.952,0.618,1.492c-0.001,0.539-0.206,1.079-0.618,1.492l-6.687,6.687l6.687,6.687  c0.824,0.824,0.823,2.16,0,2.983c-0.412,0.412-0.952,0.618-1.492,0.619c-0.539-0.001-1.079-0.206-1.492-0.619l-6.687-6.687  l-6.687,6.687c-0.824,0.824-2.16,0.823-2.983,0c-0.823-0.823-0.824-2.159,0-2.983l6.687-6.687l-6.687-6.687  C65.65,68.757,65.651,67.422,66.474,66.598z"
   id="path15" />

<path
   d="m 65.549173,22.361091 c 0,6.306 5.112,11.418 11.418,11.418 6.306,0 11.418,-5.112 11.418,-11.418 0,-6.306 -5.112,-11.418 -11.418,-11.418 -6.306,0 -11.418,5.112 -11.418,11.418 z m 20.149,0.075 c 0,4.863 -3.942,8.806 -8.806,8.806 -4.863,0 -8.806,-3.943 -8.806,-8.806 0,-4.864 3.943,-8.806 8.806,-8.806 4.864,0 8.806,3.942 8.806,8.806 z"
   id="path19"
   inkscape:connector-curvature="0" />

<g
   id="Captions"
   transform="matrix(0.66954293,0,0,0.66954293,-80.881481,-44.753878)">
</g><g
   id="g3391"
   transform="matrix(0.38557348,0,0,0.38870576,68.517582,54.538042)"><g
     transform="matrix(0.66954293,0,0,0.66954293,-80.881481,-44.753878)"
     id="g3276">
			<path
   id="path3278"
   d="M 26.53,11.559 1.858,23.755 21.425,23.045 45.955,10 26.53,11.559 z m -2.351,6.292 c -1.714,0.655 -3.201,0.929 -3.322,0.613 -0.122,-0.318 1.169,-1.105 2.882,-1.761 1.713,-0.655 3.201,-0.929 3.322,-0.612 0.122,0.317 -1.169,1.105 -2.882,1.76 z"
   inkscape:connector-curvature="0" />
		</g><path
     inkscape:connector-curvature="0"
     d="m -67.104966,-28.660075 -12.247279,0.475376 7.405145,19.7468295 12.24661,1.6135985 -7.404476,-21.835804 z m -7.347564,7.020828 c -0.633387,0.252417 -1.527227,-0.496801 -1.995907,-1.673858 -0.468011,-1.177056 -0.335441,-2.336035 0.297277,-2.588453 0.633387,-0.252417 1.526558,0.496801 1.995907,1.673858 0.46868,1.177056 0.335441,2.336035 -0.297277,2.588453 z m 4.327926,11.408342 c -0.638075,0.2396959 -1.517854,-0.525592 -1.965109,-1.711352 -0.447924,-1.185761 -0.29326,-2.341392 0.344145,-2.581758 0.638075,-0.241035 1.517185,0.524922 1.965109,1.710682 0.447924,1.184422 0.293929,2.340723 -0.344145,2.582428 z m 2.941971,-11.229574 c -0.711724,0.271834 -1.691935,-0.562417 -2.188066,-1.864008 -0.494792,-1.301591 -0.320041,-2.576401 0.392352,-2.846897 0.713063,-0.272503 1.692605,0.562417 2.188067,1.863338 0.4968,1.300922 0.320711,2.576402 -0.392353,2.847567 z m 4.094255,12.3416844 c -0.695655,0.2316618 -1.61025,-0.6374049 -2.042106,-1.9389964 -0.432524,-1.300922 -0.21894,-2.544933 0.476045,-2.775925 0.695656,-0.231662 1.610921,0.637405 2.042776,1.938996 0.432525,1.301592 0.21894,2.5442635 -0.476715,2.7759254 z"
     id="path3282" /><g
     transform="matrix(0.66954293,0,0,0.66954293,-80.881481,-44.753878)"
     id="g3284">
			<path
   id="path3286"
   d="M 81.827,55.799 70.343,88.127 86.507,76.781 97,48 81.827,55.799 z m -4.574,23.354 c -1.008,1.819 -2.241,3.064 -2.756,2.775 -0.513,-0.282 -0.112,-1.986 0.895,-3.805 1.009,-1.816 2.242,-3.061 2.756,-2.775 0.514,0.286 0.113,1.99 -0.895,3.805 z m 8.081,-11.922 c -0.967,1.745 -2.169,2.932 -2.683,2.646 -0.515,-0.286 -0.146,-1.931 0.823,-3.679 0.968,-1.745 2.169,-2.932 2.682,-2.646 0.514,0.287 0.147,1.931 -0.822,3.679 z m 4.761,-8.789 c -0.513,-0.284 -0.145,-1.933 0.823,-3.679 0.969,-1.746 2.169,-2.932 2.683,-2.646 0.514,0.284 0.146,1.931 -0.822,3.678 -0.968,1.746 -2.17,2.933 -2.684,2.647 z"
   inkscape:connector-curvature="0" />
		</g><path
     inkscape:connector-curvature="0"
     d="m -47.2644,-20.590074 3.353071,-1.247358 -5.441375,-16.031536 -16.803519,9.208893 7.214994,21.8351344 7.948144,-4.9512704 3.444129,-8.434901 0.284556,-0.378962 z m -9.763275,9.619993 c -1.162327,0 -2.104373,-1.175717 -2.104373,-2.626617 0,-1.45023 0.942046,-2.626617 2.104373,-2.626617 1.162326,0 2.105043,1.176387 2.105043,2.626617 0,1.4509 -0.942717,2.626617 -2.105043,2.626617 z m 5.918759,-18.1647 c -1.12751,0 -2.041436,-1.104076 -2.041436,-2.467265 0,-1.36252 0.913926,-2.467266 2.041436,-2.467266 1.127511,0 2.040767,1.104746 2.040767,2.467266 0,1.363189 -0.913926,2.467265 -2.040767,2.467265 z"
     id="path3290" /><path
     inkscape:connector-curvature="0"
     d="M -46.410733,-18.8814 -54.859695,1.8135023 -34.352934,14.250932 -26.664573,-7.7743524 -46.410733,-18.8814 z M -49.22683,2.8593284 c -1.276149,0 -2.309923,-1.1167976 -2.309923,-2.49270835 0,-1.37724985 1.033104,-2.49270835 2.309923,-2.49270835 1.276818,0 2.309923,1.1154585 2.309923,2.49270835 6.69e-4,1.37591075 -1.033105,2.49270835 -2.309923,2.49270835 z m 2.183379,-15.0078044 c 0,-0.01674 0.0027,-0.03415 0.0027,-0.05022 0.02343,-1.448221 1.090016,-2.615904 2.40232,-2.615904 0.441899,0 0.855007,0.134578 1.211204,0.36557 0.713732,0.462654 1.194464,1.31833 1.194464,2.301219 0,1.472325 -1.076625,2.6654506 -2.405668,2.6654506 -1.328373,0 -2.404998,-1.1937946 -2.404998,-2.6661196 z m 3.576698,9.6186533 c 0,-1.4709858 1.075956,-2.6654504 2.404999,-2.6654504 1.329042,0 2.404998,1.1944646 2.404998,2.6654504 0,1.473664 -1.075956,2.66611998 -2.404998,2.66611998 -1.329043,0 -2.404999,-1.19178638 -2.404999,-2.66611998 z m 6.296382,12.445464 c -1.380597,0 -2.499404,-1.193795 -2.499404,-2.6654504 0,-1.4723249 1.118807,-2.6661199 2.499404,-2.6661199 1.381267,0 2.500073,1.193795 2.500073,2.6661199 6.7e-4,1.4716554 -1.118136,2.6654504 -2.500073,2.6654504 z m 4.651984,-12.6898471 c -1.327703,0 -2.404998,-1.1931255 -2.404998,-2.6647809 0,-1.4729944 1.076625,-2.6667895 2.404998,-2.6667895 1.328374,0 2.404999,1.1937951 2.404999,2.6667895 0,1.4716554 -1.076625,2.6647809 -2.404999,2.6647809 z"
     id="path3292" /><path
     inkscape:connector-curvature="0"
     d="m -35.01846,-23.390772 -11.107048,4.129072 20.030716,11.1070472 10.158975,-5.1260202 -19.082643,-10.110099 z m -2.582427,6.468455 c -0.174751,0.456628 -1.349129,0.432524 -2.62193,-0.05557 -0.739175,-0.283216 -1.348459,-0.660169 -1.694613,-1.016366 l -0.29326,-0.693646 c 0.0087,-0.02343 0.0221,-0.04352 0.03616,-0.06428 0.259113,-0.389005 1.376581,-0.344145 2.585106,0.119178 1.272801,0.487428 2.162623,1.253385 1.988542,1.710683 z m 6.107571,3.195728 c -0.175421,0.457298 -1.349799,0.432525 -2.6226,-0.0549 -1.272801,-0.487427 -2.161954,-1.253384 -1.987203,-1.710012 0.17475,-0.457298 1.349129,-0.432525 2.62126,0.0549 1.272801,0.487428 2.163293,1.253385 1.988543,1.710013 z m 0.378961,-5.758739 c -0.174081,0.456628 -1.349129,0.431855 -2.621261,-0.05557 -1.272801,-0.487427 -2.163293,-1.252715 -1.988542,-1.710013 0.17542,-0.456628 1.34779,-0.431855 2.62193,0.05557 1.272801,0.487427 2.162624,1.252045 1.987873,1.710012 z m 5.506991,8.89153 c -0.175421,0.457298 -1.349129,0.433195 -2.621931,-0.05423 -1.272801,-0.487427 -2.161954,-1.252715 -1.989212,-1.710012 0.175421,-0.457968 1.349799,-0.432525 2.6226,0.0549 1.272801,0.487427 2.163293,1.252045 1.988543,1.709343 z m 0.03147,-5.885952 c -0.17542,0.456629 -1.34779,0.432525 -2.62193,-0.05557 -1.273471,-0.486757 -2.161954,-1.252714 -1.987873,-1.710012 0.174081,-0.456629 1.348459,-0.432525 2.621261,0.05557 1.272801,0.488097 2.163293,1.252715 1.988542,1.710012 z m 3.104671,2.856271 c -1.272132,-0.487428 -2.161954,-1.252715 -1.987873,-1.709344 0.17542,-0.457967 1.349798,-0.432524 2.622599,0.0549 1.272801,0.487427 2.161954,1.253384 1.988543,1.710013 -0.17542,0.456628 -1.349799,0.432524 -2.623269,-0.05557 z"
     id="path3294" /></g></svg>