<svg xmlns="http://www.w3.org/2000/svg" xmlns:xlink="http://www.w3.org/1999/xlink" version="1.1" x="0px" y="0px" width="100px" height="100px" viewBox="0 0 100 100" enable-background="new 0 0 100 100" xml:space="preserve">
<g id="Captions">
</g>
<g id="Your_Icon">
	<g>
		<path d="M95.758,46.942c-3.199-5.76-7.793-11.056-10.459-13.909l3.8-0.479c0.679-0.086,1.214-0.62,1.299-1.298    c0.087-0.679-0.295-1.329-0.931-1.583c-4.187-1.676-6.04-5.33-8.605-10.389c-0.955-1.885-2.04-4.022-3.359-6.263    c-5.832-9.9-21.218-11.379-29.87-11.379c-10.21,0-22.667,2.862-27.478,10.846c-4.142,1.491-5.3,4.427-5.35,4.557    c-0.211,0.558-0.072,1.188,0.353,1.604c0.425,0.417,1.058,0.542,1.61,0.32c0.479-0.193,0.81-0.28,1.026-0.319    c-0.025,0.164-0.069,0.357-0.125,0.523C16.392,21.297,2.708,44.311,1.857,55.45c-0.4,5.243,0.244,9.422,1.915,12.42    c1.351,2.426,2.929,3.192,3.104,3.271c0.488,0.221,1.057,0.162,1.491-0.148c0.436-0.312,0.671-0.835,0.62-1.369    c-0.066-0.681,0.041-1.902,0.481-2.363c0.065-0.067,0.219-0.229,0.697-0.201c1.181,0.062,2.09,0.504,2.704,1.313    c0.975,1.286,1.203,3.5,0.625,6.072c-0.14,0.626,0.133,1.272,0.682,1.607c0.241,0.148,0.512,0.221,0.781,0.221    c0.343,0,0.685-0.117,0.96-0.347l7.648-6.377c1.66,6.288,4.024,13.554,6.527,17.268c3.137,4.654,12.849,9.382,17.54,9.382    c5.177,0,15.258-3.554,18.656-8.909c2.458-3.874,5.272-11.181,7.305-17.487c2.341,2.428,6.772,6.041,11.276,4.409    c0.467-0.168,0.818-0.56,0.941-1.039c0.122-0.48,0-0.991-0.326-1.363c-0.735-0.837-1.743-2.493-1.571-3.394    c0.021-0.115,0.073-0.388,0.612-0.664c0.323-0.167,0.646-0.18,1.038-0.042c2.034,0.711,4.506,4.761,5.587,7.146    c0.229,0.505,0.719,0.844,1.273,0.879c0.558,0.037,1.083-0.239,1.373-0.713c0.094-0.155,2.318-3.821,3.693-9.082    C99.336,58.877,98.736,52.309,95.758,46.942z M63.755,85.683c-1.192,1.881-3.873,3.822-7.354,5.327    c-3.076,1.33-6.518,2.19-8.769,2.19c-3.886,0-12.481-4.246-15.052-8.061c-3.465-5.141-6.993-18.88-8.111-25.094    c-0.05-0.275-0.174-0.53-0.361-0.737c-1.936-2.15-3.848-4.509-4.12-7.591c-0.184-2.085,0.889-3.738,2.374-6.025    c0.614-0.943,1.308-2.013,1.951-3.201c0.178-0.33,0.226-0.713,0.136-1.077c-0.855-3.418-0.254-16.996,3.835-24.755    c3.76-7.132,13.736-8.198,19.35-8.198c3.897,0,16.959,0.595,21.386,8.249c4.298,7.433,5.167,21.149,4.2,24.67    c-0.107,0.394-0.051,0.812,0.156,1.162c0.706,1.188,1.468,2.259,2.142,3.204c1.621,2.273,2.789,3.916,2.593,5.957    c-0.296,3.056-2.391,5.406-4.511,7.554c-0.206,0.209-0.348,0.475-0.404,0.764C72.135,65.382,67.422,79.903,63.755,85.683z     M94.609,65.101c-0.613,2.372-1.43,4.414-2.104,5.887c-1.325-2.258-3.473-5.242-5.95-6.108c-1.168-0.407-2.343-0.337-3.398,0.204    c-1.528,0.784-2.035,1.944-2.193,2.78c-0.239,1.277,0.191,2.601,0.743,3.674c-2.834-0.51-5.732-3.407-7.079-5.078    c0.622-2.116,1.117-4,1.419-5.412c2.295-2.356,4.675-5.195,5.048-9.053c0.307-3.16-1.366-5.506-3.135-7.988    c-0.565-0.792-1.146-1.606-1.698-2.488c0.971-5.08-0.195-18.609-4.646-26.308c-5.087-8.798-18.467-9.747-23.982-9.747    c-6.29,0-17.509,1.272-22.003,9.798c-4.061,7.706-5.116,21.257-4.219,26.278c-0.509,0.896-1.044,1.719-1.564,2.52    C18.24,46.531,16.724,48.866,17,51.98c0.337,3.83,2.502,6.663,4.594,9.017c0.264,1.405,0.661,3.258,1.158,5.328l-5.954,4.962    c-0.08-1.869-0.599-3.489-1.538-4.728c-1.155-1.524-2.862-2.387-4.937-2.495c-1.54-0.08-2.498,0.571-3.032,1.135    c-0.377,0.396-0.649,0.859-0.844,1.339c-1.018-1.759-2.044-5.024-1.599-10.858C5.667,44.95,20.165,20.84,20.312,20.598    c0.042-0.069,0.079-0.145,0.109-0.22c0.173-0.433,0.967-2.664-0.38-4.007c-0.13-0.128-0.266-0.237-0.409-0.33    c0.526-0.324,1.177-0.632,1.978-0.876c0.375-0.115,0.69-0.373,0.877-0.717C26.436,7.21,38.5,4.641,47.632,4.641    c6.449,0,22.021,0.965,27.287,9.902c1.271,2.16,2.286,4.161,3.267,6.096c1.957,3.86,3.623,7.144,6.302,9.474l-2.549,0.322    c-0.573,0.072-1.053,0.466-1.235,1.014c-0.183,0.547-0.035,1.15,0.381,1.552c0.075,0.073,7.616,7.411,12.05,15.397    C95.758,53.123,96.254,58.743,94.609,65.101z"/>
		<path d="M31.295,25.987c0.047-0.038,4.866-3.847,16.765-3.847c12.311,0,18.151,3.857,18.242,3.919    c0.262,0.18,0.557,0.266,0.852,0.266c0.474,0,0.939-0.225,1.231-0.645c0.473-0.68,0.305-1.614-0.376-2.087    c-0.262-0.182-6.562-4.453-19.949-4.453c-12.954,0-18.432,4.336-18.658,4.521c-0.642,0.523-0.739,1.468-0.216,2.11    C29.708,26.413,30.652,26.51,31.295,25.987z"/>
		<path d="M36.862,17.178c0.036-0.019,3.724-1.896,11.198-1.896c6.381,0,10.691,1.896,10.772,1.93    c0.2,0.091,0.411,0.135,0.617,0.135c0.57,0,1.115-0.327,1.366-0.879c0.344-0.754,0.012-1.644-0.743-1.986    c-0.196-0.09-4.913-2.199-12.013-2.199c-8.2,0-12.409,2.142-12.583,2.233c-0.736,0.382-1.021,1.289-0.639,2.024    C35.221,17.274,36.126,17.56,36.862,17.178z"/>
		<path d="M39.603,33.412c0.822-0.103,1.406-0.852,1.304-1.673c-0.103-0.822-0.849-1.41-1.673-1.305    c-5.183,0.645-8.405,1.944-10.447,4.219c-2.19,2.438-2.705,5.775-2.934,9.02c-0.058,0.826,0.564,1.543,1.39,1.601    c0.036,0.003,0.072,0.004,0.108,0.004c0.779,0,1.438-0.604,1.494-1.393C29.288,37.618,30.493,34.542,39.603,33.412z"/>
		<path d="M57.624,30.438c-0.823-0.117-1.578,0.456-1.694,1.275c-0.115,0.82,0.457,1.58,1.276,1.694    c7.926,1.115,8.977,4.192,9.368,10.465c0.05,0.795,0.71,1.405,1.496,1.405c0.03,0,0.063,0,0.095-0.002    c0.827-0.052,1.455-0.764,1.403-1.59C69.085,35.945,67.104,31.77,57.624,30.438z"/>
		<circle cx="59.451" cy="41.815" r="1.678"/>
		<circle cx="37.169" cy="41.815" r="1.678"/>
		<path d="M55.519,62.321c0.83-1.002,1.353-2.211,1.353-3.615c0-5.797-2.312-9.896-2.411-10.066    c-0.41-0.718-1.323-0.965-2.042-0.556s-0.969,1.325-0.562,2.044c0.02,0.035,2.014,3.615,2.014,8.579    c0,2.254-3.413,4.068-6.238,4.068c-2.389,0-6-1.622-6-4.068c0-4.974,1.936-8.561,1.956-8.596c0.4-0.724,0.139-1.634-0.584-2.036    c-0.725-0.404-1.637-0.142-2.04,0.582c-0.095,0.171-2.331,4.263-2.331,10.05c0,1.475,0.565,2.733,1.446,3.764    c-2.927,1.482-11.056,6.115-10.657,14.1C29.461,77.366,30.12,78,30.919,78h8.46c0.47,4,1.871,5.406,3.103,6.65    c1.88,1.899,4.179,2.98,5.864,3.184c0.072,0.012,0.137,0.098,0.213,0.098c0.066,0,0.139,0.016,0.207,0.012    c0.072,0.004,0.153,0.03,0.223,0.03c0.209,0,0.407-0.039,0.587-0.12c1.387-0.303,2.901-1.385,4.151-2.645    C55.043,83.882,56.556,82,56.968,78h7.59c0.751,0,1.386-0.577,1.486-1.32c0.014-0.109,0.342-2.816-0.944-5.904    C63.99,68.107,61.42,64.602,55.519,62.321z M51.597,83.101c-0.989,0.997-1.992,1.567-2.638,1.712    c-0.883-0.014-2.742-0.834-4.344-2.452C43.781,81.52,42.831,81,42.417,78h11.52C53.565,81,52.519,82.17,51.597,83.101z M40.719,75    h-0.015h-8.229c0.864-7,9.695-10.289,9.791-10.328c0.05-0.02,0.083-0.182,0.128-0.204c1.666,0.943,3.613,1.372,5.238,1.372    c1.704,0,3.746-0.55,5.481-1.53c0.162,0.159,0.354,0.538,0.596,0.621C61.475,67.618,62.863,74,63.067,75H40.719z"/>
	</g>
</g>
</svg>