<svg xmlns="http://www.w3.org/2000/svg" xmlns:xlink="http://www.w3.org/1999/xlink" version="1.1" id="Your_Icon" x="0px" y="0px" width="100px" height="100px" viewBox="0 0 100 100" enable-background="new 0 0 100 100" xml:space="preserve">
<path d="M62.193,11.333v24.785h-24V11.333c0-0.368-0.112-0.701-0.293-0.943C37.719,10.149,37.469,10,37.193,10  c-0.552,0-1,0.597-1,1.333v24.785H11.436c-0.367,0-0.699,0.112-0.94,0.293c-0.241,0.181-0.39,0.431-0.39,0.707  c0,0.552,0.596,1,1.33,1h24.757v24H11.436c-0.367,0-0.699,0.112-0.94,0.293c-0.241,0.181-0.39,0.431-0.39,0.707  c0,0.552,0.596,1,1.33,1h24.757v24.549c0,0.368,0.112,0.701,0.293,0.943c0.181,0.241,0.431,0.39,0.707,0.39c0.552,0,1-0.597,1-1.333  V64.118h24v24.549c0,0.368,0.112,0.701,0.293,0.943c0.181,0.241,0.431,0.39,0.707,0.39c0.552,0,1-0.597,1-1.333V64.118h24.372  c0.367,0,0.699-0.112,0.94-0.293c0.24-0.181,0.389-0.431,0.389-0.707c0-0.552-0.595-1-1.329-1H64.193v-24h24.372  c0.367,0,0.699-0.112,0.94-0.293c0.24-0.181,0.389-0.431,0.389-0.707c0-0.552-0.595-1-1.329-1H64.193V11.333  c0-0.368-0.112-0.701-0.293-0.943C63.719,10.149,63.469,10,63.193,10C62.641,10,62.193,10.597,62.193,11.333z M62.193,62.118h-24  v-24h24V62.118z"/>
<path d="M38.775,76.269c0,6.306,5.112,11.418,11.418,11.418c6.306,0,11.418-5.112,11.418-11.418c0-6.306-5.112-11.418-11.418-11.418  C43.887,64.851,38.775,69.963,38.775,76.269z M58.924,76.344c0,4.863-3.942,8.806-8.806,8.806c-4.863,0-8.806-3.943-8.806-8.806  c0-4.864,3.943-8.806,8.806-8.806C54.982,67.538,58.924,71.48,58.924,76.344z"/>
<path d="M14.476,66.598c0.823-0.823,2.159-0.824,2.983,0l6.687,6.687l6.687-6.687c0.824-0.824,2.16-0.823,2.983,0  c0.412,0.412,0.618,0.952,0.618,1.492c-0.001,0.539-0.206,1.079-0.618,1.492l-6.687,6.687l6.687,6.687  c0.824,0.824,0.823,2.16,0,2.983c-0.412,0.412-0.952,0.618-1.492,0.619c-0.539-0.001-1.079-0.206-1.492-0.619l-6.687-6.687  l-6.687,6.687c-0.824,0.824-2.16,0.823-2.983,0c-0.823-0.823-0.824-2.159,0-2.983l6.687-6.687l-6.687-6.687  C13.651,68.757,13.652,67.422,14.476,66.598z"/>
<path d="M14.476,40.448c0.823-0.824,2.159-0.825,2.983,0l6.687,6.687l6.687-6.687c0.824-0.825,2.16-0.823,2.983,0  c0.412,0.412,0.618,0.952,0.618,1.492c-0.001,0.539-0.206,1.079-0.618,1.492l-6.687,6.687l6.687,6.687  c0.824,0.824,0.823,2.16,0,2.983c-0.412,0.412-0.952,0.618-1.492,0.619c-0.539-0.001-1.079-0.206-1.492-0.619l-6.687-6.687  l-6.687,6.687c-0.824,0.824-2.16,0.823-2.983,0c-0.823-0.823-0.824-2.159,0-2.983l6.687-6.687l-6.687-6.687  C13.652,42.606,13.652,41.271,14.476,40.448z"/>
<path d="M40.523,14.395c0.823-0.824,2.159-0.825,2.983,0l6.687,6.687l6.687-6.687c0.824-0.825,2.16-0.823,2.983,0  c0.412,0.412,0.618,0.952,0.618,1.492c-0.001,0.539-0.206,1.079-0.618,1.492l-6.687,6.687l6.687,6.687  c0.824,0.824,0.823,2.16,0,2.983c-0.412,0.412-0.952,0.618-1.492,0.619c-0.539-0.001-1.079-0.206-1.492-0.619l-6.687-6.687  l-6.687,6.687c-0.824,0.824-2.16,0.823-2.983,0c-0.823-0.823-0.824-2.159,0-2.983l6.687-6.687l-6.687-6.687  C39.698,16.553,39.699,15.218,40.523,14.395z"/>
<path d="M66.597,40.466c0.823-0.824,2.159-0.825,2.983,0l6.687,6.687l6.687-6.687c0.824-0.825,2.16-0.823,2.983,0  c0.412,0.412,0.618,0.952,0.618,1.492c-0.001,0.539-0.206,1.079-0.618,1.492l-6.687,6.687l6.687,6.687  c0.824,0.824,0.823,2.16,0,2.983c-0.412,0.412-0.952,0.618-1.492,0.619c-0.539-0.001-1.079-0.206-1.492-0.618l-6.687-6.687  l-6.687,6.687c-0.824,0.824-2.16,0.823-2.983,0c-0.823-0.823-0.824-2.159,0-2.983l6.687-6.687l-6.687-6.687  C65.772,42.624,65.773,41.289,66.597,40.466z"/>
<path d="M66.474,66.598c0.823-0.823,2.159-0.824,2.983,0l6.687,6.687l6.687-6.687c0.824-0.824,2.16-0.823,2.983,0  c0.412,0.412,0.618,0.952,0.618,1.492c-0.001,0.539-0.206,1.079-0.618,1.492l-6.687,6.687l6.687,6.687  c0.824,0.824,0.823,2.16,0,2.983c-0.412,0.412-0.952,0.618-1.492,0.619c-0.539-0.001-1.079-0.206-1.492-0.619l-6.687-6.687  l-6.687,6.687c-0.824,0.824-2.16,0.823-2.983,0c-0.823-0.823-0.824-2.159,0-2.983l6.687-6.687l-6.687-6.687  C65.65,68.757,65.651,67.422,66.474,66.598z"/>
<path d="M38.775,50.118c0,6.306,5.112,11.418,11.418,11.418c6.306,0,11.418-5.112,11.418-11.418c0-6.306-5.112-11.418-11.418-11.418  C43.887,38.7,38.775,43.812,38.775,50.118z M58.924,50.193c0,4.863-3.942,8.806-8.806,8.806c-4.863,0-8.806-3.943-8.806-8.806  c0-4.864,3.943-8.806,8.806-8.806C54.982,41.387,58.924,45.329,58.924,50.193z"/>
<path d="M12.728,24.065c0,6.306,5.112,11.418,11.418,11.418c6.306,0,11.418-5.112,11.418-11.418c0-6.306-5.112-11.418-11.418-11.418  C17.84,12.647,12.728,17.759,12.728,24.065z M32.877,24.14c0,4.863-3.942,8.806-8.806,8.806c-4.863,0-8.806-3.943-8.806-8.806  c0-4.864,3.943-8.806,8.806-8.806C28.935,15.334,32.877,19.276,32.877,24.14z"/>
<path d="M64.726,24.065c0,6.306,5.112,11.418,11.418,11.418s11.418-5.112,11.418-11.418c0-6.306-5.112-11.418-11.418-11.418  S64.726,17.759,64.726,24.065z M84.875,24.14c0,4.863-3.942,8.806-8.806,8.806c-4.863,0-8.806-3.943-8.806-8.806  c0-4.864,3.943-8.806,8.806-8.806C80.933,15.334,84.875,19.276,84.875,24.14z"/>
</svg>